<svg width="41" height="41" viewBox="0 0 41 41" fill="none" xmlns="http://www.w3.org/2000/svg">
<path d="M20.4993 0.916504C9.88322 0.916504 0.916016 9.88371 0.916016 20.4998C0.916016 31.116 9.88322 40.0832 20.4993 40.0832C31.1155 40.0832 40.0827 31.116 40.0827 20.4998C40.0827 9.88371 31.1155 0.916504 20.4993 0.916504ZM20.4993 10.7082C23.8814 10.7082 26.3743 13.1992 26.3743 16.5832C26.3743 19.9672 23.8814 22.4582 20.4993 22.4582C17.1193 22.4582 14.6243 19.9672 14.6243 16.5832C14.6243 13.1992 17.1193 10.7082 20.4993 10.7082ZM10.5001 29.845C12.2567 27.26 15.1864 25.5367 18.541 25.5367H22.4577C25.8143 25.5367 28.742 27.26 30.4986 29.845C27.9959 32.524 24.4454 34.2082 20.4993 34.2082C16.5533 34.2082 13.0028 32.524 10.5001 29.845Z" fill="#4A6579"/>
</svg>
