<svg width="28" height="38" viewBox="0 0 28 38" fill="none" xmlns="http://www.w3.org/2000/svg">
<path d="M25.4992 16.7001H23.1992V9.8001C23.1992 4.7401 19.0592 0.600098 13.9992 0.600098C8.93922 0.600098 4.79922 4.7401 4.79922 9.8001V16.7001H2.49922C1.34922 16.7001 0.199219 17.8501 0.199219 19.0001V35.1001C0.199219 36.2501 1.34922 37.4001 2.49922 37.4001H25.4992C26.6492 37.4001 27.7992 36.2501 27.7992 35.1001V19.0001C27.7992 17.8501 26.6492 16.7001 25.4992 16.7001ZM16.2992 32.8001H11.6992L12.6192 27.7401C11.4692 27.2801 10.5492 25.9001 10.5492 24.7501C10.5492 22.9101 12.1592 21.3001 13.9992 21.3001C15.8392 21.3001 17.4492 22.9101 17.4492 24.7501C17.4492 26.1301 16.7592 27.2801 15.3792 27.7401L16.2992 32.8001ZM18.5992 16.7001H9.39922V9.8001C9.39922 7.2701 11.4692 5.2001 13.9992 5.2001C16.5292 5.2001 18.5992 7.2701 18.5992 9.8001V16.7001Z" fill="#4A6579"/>
</svg>
