<svg width="1884" height="1042" viewBox="0 0 1884 1042" fill="none" xmlns="http://www.w3.org/2000/svg">
<path d="M66.8574 414.238C66.8574 414.238 418.395 -168.23 503.686 204.252C588.976 576.734 643.267 680.796 766.778 632.071C890.29 583.345 1012.2 370.685 1154.12 382.167C1296.04 393.65 1333.05 791.964 1449.33 776.4C1565.62 760.837 1747.6 534.187 1747.6 534.187" stroke="url(#paint0_linear)" stroke-width="3" stroke-linecap="round" stroke-linejoin="round"/>
<path d="M138.876 63.4751C138.876 63.4751 186.564 546.831 366.147 616.341C545.729 685.851 685.657 206.408 857.815 259.987C1029.97 313.567 906.545 730.048 1064.86 768.424C1223.18 806.8 1355 452.859 1509.76 462.888C1664.51 472.917 1797.58 811.238 1797.58 811.238" stroke="url(#paint1_linear)" stroke-width="3" stroke-linecap="round" stroke-linejoin="round"/>
<path d="M79.4362 366.36C79.4362 366.36 411.983 -149.494 503.167 204.052C594.351 557.599 653.994 625.191 780.546 582.86C907.098 540.529 1013.67 367.189 1156.62 380.353C1299.56 393.516 1342.5 744.814 1461.19 730.85C1579.88 716.886 1758.8 525.547 1758.8 525.547" stroke="url(#paint2_linear)" stroke-width="3"/>
<path d="M91.933 318.745C91.933 318.745 405.49 -130.495 502.567 204.116C599.643 538.726 664.639 569.85 794.231 533.913C923.824 497.976 1015.06 363.958 1159.03 378.802C1303 393.646 1351.86 697.928 1472.96 685.564C1594.05 673.199 1769.92 517.171 1769.92 517.171" stroke="url(#paint3_linear)" stroke-width="3"/>
<path d="M103.45 274.278C103.45 274.278 398.016 -108.348 500.987 207.327C603.957 523.002 674.305 517.656 806.937 488.113C939.57 458.57 1015.48 363.873 1160.47 380.398C1305.47 396.923 1360.25 654.189 1483.75 643.425C1607.25 632.66 1780.06 511.942 1780.06 511.942" stroke="url(#paint4_linear)" stroke-width="3"/>
<path d="M111.897 239.677C111.897 239.677 387.472 -76.3347 496.336 220.404C605.199 517.143 680.899 475.329 816.573 452.18C952.246 429.031 1012.82 373.655 1158.84 391.861C1304.86 410.067 1365.57 620.317 1491.47 611.152C1617.38 601.987 1787.13 516.58 1787.13 516.58" stroke="url(#paint5_linear)" stroke-width="3"/>
<path d="M120.346 205.077C120.346 205.077 376.93 -44.3209 491.687 233.482C606.444 511.286 687.496 433.002 826.21 416.247C964.923 399.492 1010.16 383.438 1157.21 403.325C1304.25 423.212 1370.89 586.446 1499.2 578.88C1627.51 571.314 1794.2 521.218 1794.2 521.218" stroke="url(#paint6_linear)" stroke-width="3"/>
<path d="M128.792 170.477C128.792 170.477 366.386 -12.3076 487.036 246.56C607.686 505.427 694.091 390.675 835.845 380.314C977.599 369.953 1007.5 393.22 1155.57 414.788C1303.64 436.355 1376.21 552.574 1506.92 546.608C1637.63 540.641 1801.27 525.856 1801.27 525.856" stroke="url(#paint7_linear)" stroke-width="3"/>
<path d="M137.239 135.876C137.239 135.876 355.842 19.7057 482.385 259.637C608.929 499.569 700.686 348.348 845.48 344.381C990.274 340.414 1004.85 403.003 1153.94 426.251C1303.03 449.499 1381.52 518.702 1514.64 514.335C1647.76 509.968 1808.34 530.493 1808.34 530.493" stroke="url(#paint8_linear)" stroke-width="3"/>
<path d="M148.785 83.8545C148.785 83.8545 329.407 100.912 467.737 302.973C606.067 505.033 708.528 280.873 859.404 289.694C1010.28 298.516 994.185 439.747 1145.33 466.357C1296.47 492.967 1386.81 468.138 1524.74 466.97C1662.66 465.802 1817.13 556.949 1817.13 556.949" stroke="url(#paint9_linear)" stroke-width="3"/>
<path d="M148.677 76.7397C148.677 76.7397 310.309 160.411 454.532 343.536C598.755 526.661 706.569 266.032 860.485 281.247C1014.4 296.462 982.973 477.015 1135.14 505.306C1287.31 533.597 1383.58 461.752 1523.91 462.183C1664.24 462.615 1815.65 589.072 1815.65 589.072" stroke="url(#paint10_linear)" stroke-width="3"/>
<path d="M147.602 72.7329C147.602 72.7329 290.244 223.019 440.36 387.208C590.476 551.396 703.642 254.298 860.598 275.908C1017.55 297.517 970.793 517.391 1123.99 547.363C1277.18 577.335 1379.37 458.473 1522.11 460.505C1664.84 462.536 1813.2 624.304 1813.2 624.304" stroke="url(#paint11_linear)" stroke-width="3"/>
<path d="M146.128 70.0108C146.128 70.0108 269.778 286.911 425.788 432.164C581.797 577.417 700.316 243.85 860.312 271.853C1020.31 299.857 958.214 559.052 1112.43 590.705C1266.65 622.357 1374.77 456.48 1519.91 460.111C1665.05 463.742 1810.34 660.82 1810.34 660.82" stroke="url(#paint12_linear)" stroke-width="3"/>
<path d="M144.453 67.9386C144.453 67.9386 249.112 351.452 411.015 477.77C572.918 604.087 696.789 234.051 859.826 268.448C1022.86 302.846 945.435 601.363 1100.68 634.696C1255.92 668.03 1369.96 455.136 1517.51 460.367C1665.05 465.597 1807.29 697.986 1807.29 697.986" stroke="url(#paint13_linear)" stroke-width="3"/>
<path d="M142.659 66.2419C142.659 66.2419 228.328 416.37 396.124 523.751C563.92 631.133 693.143 224.628 859.22 265.419C1025.3 306.211 932.537 644.049 1088.8 679.063C1245.07 714.078 1365.04 454.168 1514.99 460.998C1664.94 467.828 1804.12 735.528 1804.12 735.528" stroke="url(#paint14_linear)" stroke-width="3"/>
<path d="M140.792 64.7794C140.792 64.7794 207.47 481.521 381.16 569.967C554.849 658.413 689.424 215.438 858.542 262.624C1027.66 309.81 919.565 686.969 1076.86 723.664C1234.15 760.36 1360.05 453.434 1512.4 461.864C1664.75 470.293 1800.88 773.304 1800.88 773.304" stroke="url(#paint15_linear)" stroke-width="3"/>
<defs>
<linearGradient id="paint0_linear" x1="975.676" y1="254.285" x2="841.105" y2="686.678" gradientUnits="userSpaceOnUse">
<stop stop-color="#88A4BA"/>
<stop offset="0.484375" stop-color="#0082E3"/>
<stop offset="0.958333" stop-color="#2B4B9C"/>
</linearGradient>
<linearGradient id="paint1_linear" x1="1009.77" y1="303.896" x2="864.202" y2="771.609" gradientUnits="userSpaceOnUse">
<stop stop-color="#88A4BA"/>
<stop offset="0.484375" stop-color="#0082E3"/>
<stop offset="0.958333" stop-color="#2B4B9C"/>
</linearGradient>
<linearGradient id="paint2_linear" x1="977.806" y1="257.385" x2="858.18" y2="641.758" gradientUnits="userSpaceOnUse">
<stop stop-color="#88A4BA"/>
<stop offset="0.484375" stop-color="#0082E3"/>
<stop offset="0.958333" stop-color="#2B4B9C"/>
</linearGradient>
<linearGradient id="paint3_linear" x1="979.937" y1="260.485" x2="874.695" y2="598.638" gradientUnits="userSpaceOnUse">
<stop stop-color="#88A4BA"/>
<stop offset="0.484375" stop-color="#0082E3"/>
<stop offset="0.958333" stop-color="#2B4B9C"/>
</linearGradient>
<linearGradient id="paint4_linear" x1="982.067" y1="263.586" x2="889.503" y2="561.004" gradientUnits="userSpaceOnUse">
<stop stop-color="#88A4BA"/>
<stop offset="0.484375" stop-color="#0082E3"/>
<stop offset="0.958333" stop-color="#2B4B9C"/>
</linearGradient>
<linearGradient id="paint5_linear" x1="984.197" y1="266.687" x2="900.206" y2="536.56" gradientUnits="userSpaceOnUse">
<stop stop-color="#88A4BA"/>
<stop offset="0.484375" stop-color="#0082E3"/>
<stop offset="0.958333" stop-color="#2B4B9C"/>
</linearGradient>
<linearGradient id="paint6_linear" x1="986.33" y1="269.788" x2="909.603" y2="516.319" gradientUnits="userSpaceOnUse">
<stop stop-color="#88A4BA"/>
<stop offset="0.484375" stop-color="#0082E3"/>
<stop offset="0.958333" stop-color="#2B4B9C"/>
</linearGradient>
<linearGradient id="paint7_linear" x1="988.46" y1="272.889" x2="917.544" y2="500.749" gradientUnits="userSpaceOnUse">
<stop stop-color="#88A4BA"/>
<stop offset="0.484375" stop-color="#0082E3"/>
<stop offset="0.958333" stop-color="#2B4B9C"/>
</linearGradient>
<linearGradient id="paint8_linear" x1="990.59" y1="275.989" x2="924.034" y2="489.842" gradientUnits="userSpaceOnUse">
<stop stop-color="#88A4BA"/>
<stop offset="0.484375" stop-color="#0082E3"/>
<stop offset="0.958333" stop-color="#2B4B9C"/>
</linearGradient>
<linearGradient id="paint9_linear" x1="994.851" y1="282.19" x2="927.778" y2="497.703" gradientUnits="userSpaceOnUse">
<stop stop-color="#88A4BA"/>
<stop offset="0.484375" stop-color="#0082E3"/>
<stop offset="0.958333" stop-color="#2B4B9C"/>
</linearGradient>
<linearGradient id="paint10_linear" x1="996.981" y1="285.292" x2="922.132" y2="525.792" gradientUnits="userSpaceOnUse">
<stop stop-color="#88A4BA"/>
<stop offset="0.484375" stop-color="#0082E3"/>
<stop offset="0.958333" stop-color="#2B4B9C"/>
</linearGradient>
<linearGradient id="paint11_linear" x1="999.112" y1="288.392" x2="914.625" y2="559.859" gradientUnits="userSpaceOnUse">
<stop stop-color="#88A4BA"/>
<stop offset="0.484375" stop-color="#0082E3"/>
<stop offset="0.958333" stop-color="#2B4B9C"/>
</linearGradient>
<linearGradient id="paint12_linear" x1="1001.24" y1="291.493" x2="905.952" y2="597.67" gradientUnits="userSpaceOnUse">
<stop stop-color="#88A4BA"/>
<stop offset="0.484375" stop-color="#0082E3"/>
<stop offset="0.958333" stop-color="#2B4B9C"/>
</linearGradient>
<linearGradient id="paint13_linear" x1="1003.37" y1="294.593" x2="896.423" y2="638.239" gradientUnits="userSpaceOnUse">
<stop stop-color="#88A4BA"/>
<stop offset="0.484375" stop-color="#0082E3"/>
<stop offset="0.958333" stop-color="#2B4B9C"/>
</linearGradient>
<linearGradient id="paint14_linear" x1="1005.5" y1="297.694" x2="886.213" y2="680.994" gradientUnits="userSpaceOnUse">
<stop stop-color="#88A4BA"/>
<stop offset="0.484375" stop-color="#0082E3"/>
<stop offset="0.958333" stop-color="#2B4B9C"/>
</linearGradient>
<linearGradient id="paint15_linear" x1="1007.64" y1="300.795" x2="875.442" y2="725.546" gradientUnits="userSpaceOnUse">
<stop stop-color="#88A4BA"/>
<stop offset="0.484375" stop-color="#0082E3"/>
<stop offset="0.958333" stop-color="#2B4B9C"/>
</linearGradient>
</defs>
</svg>
